<svg width="74" height="74" viewBox="0 0 74 74" fill="none" xmlns="http://www.w3.org/2000/svg">
    <path d="M60.1243 20.8149H47.962C47.8342 20.8149 46.8243 21.5013 46.6032 21.6717C43.9691 23.7258 40.9394 28.2687 38.379 29.95C37.1553 30.7549 36.2953 30.4981 35.1847 29.7007C32.4351 27.728 29.6929 23.3999 26.963 21.4198C26.7418 21.2593 26.0317 20.8125 25.8474 20.8125H14.5692C14.0491 20.8125 13.7351 21.14 14.0505 21.5556C16.016 24.1322 19.1911 26.6198 21.7489 29.1258C22.9036 30.2571 24.1637 31.3607 25.7721 31.4793C28.5333 31.683 32.3639 31.0408 34.4401 31.4363C34.6982 31.4857 34.9119 31.5623 35.0839 31.7746C35.2658 31.9968 35.3321 32.2585 35.3321 32.54C35.3273 34.0449 16.9621 50.8848 14.0073 54.3789C13.8724 54.5383 13.8424 54.751 13.9093 54.9492C13.9952 55.2038 14.2331 55.3752 14.5007 55.3752H25.356C27.3315 55.3752 33.7595 47.4672 35.6687 45.9858C36.6369 45.3809 37.7254 45.613 38.6272 46.2377C41.1384 47.9783 45.2075 53.9383 47.591 55.0073C48.5443 55.4345 49.8516 55.4493 50.9106 55.4838C53.6984 55.5745 56.5627 55.2491 59.3726 55.3402C59.7427 55.3522 60.0257 55.0036 59.9298 54.6442C59.9048 54.5506 59.8553 54.4653 59.7866 54.3973L53.2571 47.9367C51.2823 45.9828 48.7799 44.6011 46.0111 44.7235C43.8802 44.8176 41.7004 45.0484 39.8681 44.7464C39.4259 44.6733 38.8453 44.406 38.6017 43.9835C38.4811 43.7744 38.5289 43.5195 38.6049 43.2902C38.6907 43.0317 38.8352 42.797 39.0272 42.6046L59.2541 22.328C59.6717 21.9094 59.9719 21.3874 60.1243 20.8149Z"
          fill="#1264FF"/>
    <path fill-rule="evenodd" clip-rule="evenodd"
          d="M60.125 20.8146C60.125 20.8143 60.1245 20.8142 60.1244 20.8146L60.1243 20.8149H60.1247C60.1249 20.8149 60.125 20.8148 60.125 20.8146Z"
          fill="#1264FF"/>
</svg>
