<svg
  width="310"
  height="149"
  viewBox="0 0 310 149"
  fill="none"
  xmlns="http://www.w3.org/2000/svg"
>
  <path
    d="M0.921875 4.66296C0.921875 2.45382 2.71274 0.662964 4.92188 0.662964H96.9219C99.131 0.662964 100.922 2.45382 100.922 4.66296V24.663C100.922 26.8721 99.131 28.663 96.9219 28.663H4.92188C2.71274 28.663 0.921875 26.8721 0.921875 24.663V4.66296Z"
    fill="currentColor"
  />
  <path
    d="M4.92188 36.663C2.71274 36.663 0.921875 38.4538 0.921875 40.663V46.663C0.921875 48.8721 2.71274 50.663 4.92188 50.663H96.9219C99.131 50.663 100.922 48.8721 100.922 46.663V40.663C100.922 38.4538 99.131 36.663 96.9219 36.663H4.92188Z"
    fill="currentColor"
  />
  <path
    d="M4.92188 101.663C2.71274 101.663 0.921875 103.454 0.921875 105.663V111.663C0.921875 113.872 2.71274 115.663 4.92187 115.663H46.9219C49.131 115.663 50.9219 113.872 50.9219 111.663V105.663C50.9219 103.454 49.131 101.663 46.9219 101.663H4.92188Z"
    fill="currentColor"
  />
  <path
    d="M257.672 0.673499H309.677C309.025 3.12148 307.741 5.35316 305.956 7.14297L219.469 93.8425C218.648 94.6652 218.03 95.6691 217.663 96.7741C217.338 97.7545 217.134 98.8446 217.649 99.7388C218.691 101.545 221.173 102.688 223.064 103.001C229.278 104.025 236.427 103.616 243.664 103.202C245.552 103.094 247.446 102.986 249.331 102.903C261.17 102.379 271.87 108.287 280.314 116.642L308.232 144.266C308.526 144.557 308.738 144.922 308.845 145.322C309.255 146.859 308.045 148.349 306.462 148.298C300.445 148.103 294.37 148.355 288.306 148.606C282.262 148.856 276.23 149.106 270.28 148.912C270.004 148.903 269.725 148.895 269.441 148.886C265.077 148.75 259.914 148.59 256.086 146.875C250.496 144.368 242.738 135.569 235.101 126.907C228.813 119.776 222.607 112.737 217.758 109.377C213.902 106.706 209.248 105.714 205.108 108.3C202.347 110.442 197.376 115.728 191.679 121.786C180.531 133.639 166.603 148.448 161.013 148.448H114.597C113.453 148.448 112.436 147.715 112.068 146.626C111.783 145.779 111.911 144.869 112.487 144.188C117.451 138.318 132.587 123.639 149.137 107.589C174.709 82.7885 203.657 54.7144 203.669 50.8078C203.669 49.6043 203.385 48.4853 202.608 47.5352C201.872 46.6273 200.958 46.3001 199.855 46.0889C195.021 45.168 187.963 45.5627 180.63 45.9727C174.496 46.3156 168.17 46.6693 162.792 46.2727C155.915 45.7656 150.527 41.0467 145.589 36.2094C142.005 32.6973 138.137 29.1938 134.26 25.6825C126.309 18.4808 118.322 11.2467 112.672 3.84054C111.324 2.0633 112.666 0.662964 114.89 0.662964H163.114C163.902 0.662964 166.938 2.57374 167.884 3.25993C173.683 7.46617 179.495 14.1503 185.317 20.8464C191.215 27.6286 197.123 34.4231 203.039 38.6675C207.788 42.0773 211.465 43.1752 216.697 39.7337C222.533 35.9013 228.939 28.5919 235.356 21.2711C240.976 14.8588 246.603 8.43777 251.862 4.33671C252.808 3.60829 257.126 0.673499 257.672 0.673499Z"
    fill="currentColor"
  />
  <path
    d="M309.677 0.673499H309.678C309.679 0.673499 309.68 0.672948 309.68 0.672269C309.68 0.670831 309.678 0.670561 309.677 0.671949L309.677 0.673499Z"
    fill="currentColor"
  />
</svg> 