<svg width="400" height="232" viewBox="0 0 400 232" fill="none" xmlns="http://www.w3.org/2000/svg">
<rect width="400" height="231.674" fill="#F6F8FA"/>
<g filter="url(#filter0_dd_682_3334)">
<path d="M251.051 28H148.277C142.601 28 138 32.6013 138 38.2774V193.723C138 199.399 142.601 204 148.277 204H251.051C256.727 204 261.328 199.399 261.328 193.723V38.2774C261.328 32.6013 256.727 28 251.051 28Z" fill="url(#paint0_linear_682_3334)"/>
<path d="M251.051 28H148.277C142.601 28 138 32.6013 138 38.2774V193.723C138 199.399 142.601 204 148.277 204H251.051C256.727 204 261.328 199.399 261.328 193.723V38.2774C261.328 32.6013 256.727 28 251.051 28Z" fill="#C2D6FF"/>
<path d="M251.051 28H148.277C142.601 28 138 32.6013 138 38.2774V193.723C138 199.399 142.601 204 148.277 204H251.051C256.727 204 261.328 199.399 261.328 193.723V38.2774C261.328 32.6013 256.727 28 251.051 28Z" fill="url(#paint1_linear_682_3334)"/>
</g>
<path d="M175.731 170.183L154.391 176.198C153.357 176.489 152.644 177.433 152.644 178.507V189.77L247.065 189.534V141.184C247.065 139.231 244.855 138.096 243.268 139.235L224.902 152.405C224.139 152.952 223.233 153.263 222.295 153.3L201.265 154.132C200.375 154.167 199.513 154.45 198.774 154.947L177.111 169.544C176.688 169.829 176.222 170.045 175.731 170.183Z" fill="#4183FF"/>
<path d="M174.966 182.805L154.921 184.304C153.687 184.397 152.725 185.414 152.702 186.652L152.644 189.77L247.065 189.534H247.165L247.097 159.188C247.093 157.272 244.956 156.134 243.365 157.199L225.465 169.17C224.36 169.908 222.998 170.156 221.703 169.853L202.293 165.304C200.905 164.978 199.444 165.287 198.307 166.145L177.499 181.85C176.764 182.405 175.885 182.736 174.966 182.805Z" fill="#1264FF"/>
<path d="M174.966 182.805L154.921 184.304C153.687 184.397 152.725 185.414 152.702 186.652L152.644 189.77L247.065 189.534H247.165L247.097 159.188C247.093 157.272 244.956 156.134 243.365 157.199L225.465 169.17C224.36 169.908 222.998 170.156 221.703 169.853L202.293 165.304C200.905 164.978 199.444 165.287 198.307 166.145L177.499 181.85C176.764 182.405 175.885 182.736 174.966 182.805Z" fill="url(#paint2_linear_682_3334)" fill-opacity="0.12"/>
<path d="M152.404 46.3091C152.404 44.1892 154.122 42.4707 156.242 42.4707H243.086C245.206 42.4707 246.925 44.1892 246.925 46.3091V74.1376C246.925 76.2574 245.206 77.9761 243.086 77.9761H156.242C154.122 77.9761 152.404 76.2574 152.404 74.1376V46.3091Z" fill="white"/>
<path d="M152.404 46.3091C152.404 44.1892 154.122 42.4707 156.242 42.4707H243.086C245.206 42.4707 246.925 44.1892 246.925 46.3091V74.1376C246.925 76.2574 245.206 77.9761 243.086 77.9761H156.242C154.122 77.9761 152.404 76.2574 152.404 74.1376V46.3091Z" fill="#1264FF"/>
<path d="M152.404 46.3091C152.404 44.1892 154.122 42.4707 156.242 42.4707H243.086C245.206 42.4707 246.925 44.1892 246.925 46.3091V74.1376C246.925 76.2574 245.206 77.9761 243.086 77.9761H156.242C154.122 77.9761 152.404 76.2574 152.404 74.1376V46.3091Z" fill="url(#paint3_linear_682_3334)" fill-opacity="0.12"/>
<path fill-rule="evenodd" clip-rule="evenodd" d="M152.644 96.2394C152.644 94.124 154.359 92.4087 156.474 92.4087H243.094C245.21 92.4087 246.925 94.124 246.925 96.2394C246.925 98.3549 245.21 100.07 243.094 100.07H156.474C154.359 100.07 152.644 98.3549 152.644 96.2394ZM152.644 107.731C152.644 105.616 154.359 103.9 156.474 103.9H243.094C245.21 103.9 246.925 105.616 246.925 107.731C246.925 109.847 245.21 111.562 243.094 111.562H156.474C154.359 111.562 152.644 109.847 152.644 107.731ZM156.474 115.426C154.359 115.426 152.644 117.141 152.644 119.257C152.644 121.372 154.359 123.088 156.474 123.088H199.339C201.455 123.088 203.17 121.372 203.17 119.257C203.17 117.141 201.455 115.426 199.339 115.426H156.474Z" fill="#DADADA" fill-opacity="0.6"/>
<defs>
<filter id="filter0_dd_682_3334" x="132.861" y="25.4307" width="133.606" height="186.277" filterUnits="userSpaceOnUse" color-interpolation-filters="sRGB">
<feFlood flood-opacity="0" result="BackgroundImageFix"/>
<feColorMatrix in="SourceAlpha" type="matrix" values="0 0 0 0 0 0 0 0 0 0 0 0 0 0 0 0 0 0 127 0" result="hardAlpha"/>
<feOffset dy="2.56934"/>
<feGaussianBlur stdDeviation="2.56934"/>
<feColorMatrix type="matrix" values="0 0 0 0 0.25098 0 0 0 0 0.341176 0 0 0 0 0.427451 0 0 0 0.3 0"/>
<feBlend mode="normal" in2="BackgroundImageFix" result="effect1_dropShadow_682_3334"/>
<feColorMatrix in="SourceAlpha" type="matrix" values="0 0 0 0 0 0 0 0 0 0 0 0 0 0 0 0 0 0 127 0" result="hardAlpha"/>
<feOffset/>
<feColorMatrix type="matrix" values="0 0 0 0 0.25098 0 0 0 0 0.341176 0 0 0 0 0.427451 0 0 0 0.04 0"/>
<feBlend mode="normal" in2="effect1_dropShadow_682_3334" result="effect2_dropShadow_682_3334"/>
<feBlend mode="normal" in="SourceGraphic" in2="effect2_dropShadow_682_3334" result="shape"/>
</filter>
<linearGradient id="paint0_linear_682_3334" x1="199.664" y1="28" x2="199.664" y2="204" gradientUnits="userSpaceOnUse">
<stop stop-color="white"/>
<stop offset="1" stop-color="#F2F3F5"/>
</linearGradient>
<linearGradient id="paint1_linear_682_3334" x1="86.6133" y1="-24.6715" x2="420.514" y2="232.939" gradientUnits="userSpaceOnUse">
<stop offset="0.281427" stop-color="white"/>
<stop offset="0.606099" stop-color="white" stop-opacity="0"/>
</linearGradient>
<linearGradient id="paint2_linear_682_3334" x1="199.904" y1="156.79" x2="199.904" y2="189.77" gradientUnits="userSpaceOnUse">
<stop stop-color="white"/>
<stop offset="1" stop-color="white" stop-opacity="0"/>
</linearGradient>
<linearGradient id="paint3_linear_682_3334" x1="199.664" y1="42.4707" x2="199.664" y2="77.9761" gradientUnits="userSpaceOnUse">
<stop stop-color="white"/>
<stop offset="1" stop-color="white" stop-opacity="0"/>
</linearGradient>
</defs>
</svg>
