<svg width="400" height="232" viewBox="0 0 400 232" fill="none" xmlns="http://www.w3.org/2000/svg">
<rect width="400" height="231.674" fill="#F6F8FA"/>
<g filter="url(#filter0_dd_682_3282)">
<path d="M276.447 28H123.026C115.992 28 110.289 33.7025 110.289 40.7368V191.263C110.289 198.298 115.992 204 123.026 204H276.447C283.482 204 289.184 198.298 289.184 191.263V40.7368C289.184 33.7025 283.482 28 276.447 28Z" fill="white"/>
<path d="M276.447 28H123.026C115.992 28 110.289 33.7025 110.289 40.7368V191.263C110.289 198.298 115.992 204 123.026 204H276.447C283.482 204 289.184 198.298 289.184 191.263V40.7368C289.184 33.7025 283.482 28 276.447 28Z" fill="#C2D6FF"/>
<path d="M276.447 28H123.026C115.992 28 110.289 33.7025 110.289 40.7368V191.263C110.289 198.298 115.992 204 123.026 204H276.447C283.482 204 289.184 198.298 289.184 191.263V40.7368C289.184 33.7025 283.482 28 276.447 28Z" fill="url(#paint0_linear_682_3282)"/>
</g>
<path d="M266.717 177.552H164.614C162.118 177.552 160.094 179.576 160.094 182.072C160.094 184.568 162.118 186.592 164.614 186.592H266.717C269.213 186.592 271.237 184.568 271.237 182.072C271.237 179.576 269.213 177.552 266.717 177.552Z" fill="white" fill-opacity="0.6"/>
<path d="M110 40.7368C110 33.7025 115.703 28 122.737 28H276.158C283.192 28 288.895 33.7025 288.895 40.7368V160H110V40.7368Z" fill="white"/>
<path d="M110 40.7368C110 33.7025 115.703 28 122.737 28H276.158C283.192 28 288.895 33.7025 288.895 40.7368V160H110V40.7368Z" fill="#1264FF"/>
<path d="M110 40.7368C110 33.7025 115.703 28 122.737 28H276.158C283.192 28 288.895 33.7025 288.895 40.7368V160H110V40.7368Z" fill="url(#paint1_linear_682_3282)" fill-opacity="0.24"/>
<path d="M128 181.56C128 176.582 128 174.093 129.546 172.546C131.093 171 133.582 171 138.56 171H139.44C144.418 171 146.907 171 148.454 172.546C150 174.093 150 176.582 150 181.56V182.44C150 187.418 150 189.907 148.454 191.454C146.907 193 144.418 193 139.44 193H138.56C133.582 193 131.093 193 129.546 191.454C128 189.907 128 187.418 128 182.44V181.56Z" fill="#0077FF"/>
<path d="M139.706 186.849C134.692 186.849 131.832 183.412 131.713 177.692H134.224C134.307 181.89 136.158 183.669 137.625 184.035V177.692H139.99V181.313C141.438 181.157 142.96 179.507 143.473 177.692H145.838C145.444 179.929 143.794 181.579 142.621 182.257C143.794 182.807 145.673 184.246 146.388 186.849H143.785C143.226 185.108 141.833 183.76 139.99 183.577V186.849H139.706Z" fill="white"/>
<defs>
<filter id="filter0_dd_682_3282" x="104.099" y="24.9049" width="191.275" height="188.38" filterUnits="userSpaceOnUse" color-interpolation-filters="sRGB">
<feFlood flood-opacity="0" result="BackgroundImageFix"/>
<feColorMatrix in="SourceAlpha" type="matrix" values="0 0 0 0 0 0 0 0 0 0 0 0 0 0 0 0 0 0 127 0" result="hardAlpha"/>
<feOffset dy="3.09505"/>
<feGaussianBlur stdDeviation="3.09505"/>
<feColorMatrix type="matrix" values="0 0 0 0 0.25098 0 0 0 0 0.341176 0 0 0 0 0.427451 0 0 0 0.3 0"/>
<feBlend mode="normal" in2="BackgroundImageFix" result="effect1_dropShadow_682_3282"/>
<feColorMatrix in="SourceAlpha" type="matrix" values="0 0 0 0 0 0 0 0 0 0 0 0 0 0 0 0 0 0 127 0" result="hardAlpha"/>
<feOffset/>
<feColorMatrix type="matrix" values="0 0 0 0 0.25098 0 0 0 0 0.341176 0 0 0 0 0.427451 0 0 0 0.04 0"/>
<feBlend mode="normal" in2="effect1_dropShadow_682_3282" result="effect2_dropShadow_682_3282"/>
<feBlend mode="normal" in="SourceGraphic" in2="effect2_dropShadow_682_3282" result="shape"/>
</filter>
<linearGradient id="paint0_linear_682_3282" x1="108.153" y1="28.8356" x2="300.48" y2="186.821" gradientUnits="userSpaceOnUse">
<stop offset="0.233876" stop-color="white"/>
<stop offset="0.797566" stop-color="white" stop-opacity="0"/>
</linearGradient>
<linearGradient id="paint1_linear_682_3282" x1="199.447" y1="28" x2="199.447" y2="160" gradientUnits="userSpaceOnUse">
<stop stop-color="white"/>
<stop offset="1" stop-color="white" stop-opacity="0"/>
</linearGradient>
</defs>
</svg>
