<svg width="400" height="232" viewBox="0 0 400 232" fill="none" xmlns="http://www.w3.org/2000/svg">
<rect width="400" height="231.674" fill="#F6F8FA"/>
<path d="M316.857 204H82.5714C75.6284 204 70 198.372 70 191.429V40.5714C70 33.6284 75.6284 28 82.5714 28H316.857C323.8 28 329.429 33.6284 329.429 40.5714V191.429C329.429 198.372 323.8 204 316.857 204Z" fill="white"/>
<path d="M316.857 204H82.5714C75.6284 204 70 198.372 70 191.429V40.5714C70 33.6284 75.6284 28 82.5714 28H316.857C323.8 28 329.429 33.6284 329.429 40.5714V191.429C329.429 198.372 323.8 204 316.857 204Z" fill="#C2D6FF"/>
<path d="M316.857 204H82.5714C75.6284 204 70 198.372 70 191.429V40.5714C70 33.6284 75.6284 28 82.5714 28H316.857C323.8 28 329.429 33.6284 329.429 40.5714V191.429C329.429 198.372 323.8 204 316.857 204Z" fill="url(#paint0_linear_682_3244)"/>
<path fill-rule="evenodd" clip-rule="evenodd" d="M95.2771 48.5715C92.7577 48.5715 90.7148 50.6144 90.7148 53.1338C90.7148 55.6532 92.7577 57.6961 95.2771 57.6961H199.575C202.094 57.6961 204.137 55.6532 204.137 53.1338C204.137 50.6144 202.094 48.5715 199.575 48.5715H95.2771ZM95.2771 62.2584C92.7577 62.2584 90.7148 64.3013 90.7148 66.8207C90.7148 69.3401 92.7577 71.383 95.2771 71.383H146.787C149.307 71.383 151.349 69.3401 151.349 66.8207C151.349 64.3013 149.307 62.2584 146.787 62.2584H95.2771Z" fill="#DADADA" fill-opacity="0.6"/>
<path d="M141.309 142.691L95.1048 152.464C92.463 153.023 90.5728 155.355 90.5728 158.055V183.881L308.84 183.964L308.856 71.8868C308.856 67.0702 303.264 64.4136 299.531 67.4565L260.679 99.1245C256.902 102.203 251.995 103.528 247.182 102.771L207.541 96.5313C202.576 95.7496 197.518 97.1868 193.705 100.462L148.932 138.923C146.748 140.799 144.126 142.095 141.309 142.691Z" fill="#4183FF"/>
<path d="M308.857 183.929V151.503V113.123C308.857 108.556 303.764 105.834 299.967 108.372L261.788 133.898C257.349 136.865 251.78 137.596 246.726 135.872L209.485 123.171C203.719 121.205 197.341 122.447 192.734 126.433L149.655 163.712C146.874 166.119 143.394 167.567 139.727 167.844L95.9893 171.143C93.0493 171.364 90.7602 173.787 90.7059 176.735L90.5728 183.881L308.857 183.929Z" fill="#1264FF"/>
<path d="M308.857 183.929V151.503V113.123C308.857 108.556 303.764 105.834 299.967 108.372L261.788 133.898C257.349 136.865 251.78 137.596 246.726 135.872L209.485 123.171C203.719 121.205 197.341 122.447 192.734 126.433L149.655 163.712C146.874 166.119 143.394 167.567 139.727 167.844L95.9893 171.143C93.0493 171.364 90.7602 173.787 90.7059 176.735L90.5728 183.881L308.857 183.929Z" fill="url(#paint1_linear_682_3244)" fill-opacity="0.12"/>
<defs>
<linearGradient id="paint0_linear_682_3244" x1="7.05028" y1="127.394" x2="169.919" y2="352.56" gradientUnits="userSpaceOnUse">
<stop offset="0.281427" stop-color="white"/>
<stop offset="0.606099" stop-color="white" stop-opacity="0"/>
</linearGradient>
<linearGradient id="paint1_linear_682_3244" x1="199.715" y1="107.399" x2="199.715" y2="183.929" gradientUnits="userSpaceOnUse">
<stop stop-color="white"/>
<stop offset="1" stop-color="white" stop-opacity="0"/>
</linearGradient>
</defs>
</svg>
