<svg width="400" height="232" viewBox="0 0 400 232" fill="none" xmlns="http://www.w3.org/2000/svg">
<rect width="400" height="231.674" fill="#F6F8FA"/>
<g filter="url(#filter0_d_682_3266)">
<path d="M263.734 204H151.996C148.684 204 146 198.372 146 191.429V40.5714C146 33.6284 148.684 28 151.996 28H263.734C267.046 28 269.73 33.6284 269.73 40.5714V191.429C269.73 198.372 267.046 204 263.734 204Z" fill="white"/>
<path d="M263.734 204H151.996C148.684 204 146 198.372 146 191.429V40.5714C146 33.6284 148.684 28 151.996 28H263.734C267.046 28 269.73 33.6284 269.73 40.5714V191.429C269.73 198.372 267.046 204 263.734 204Z" fill="#C2D6FF"/>
<path d="M263.734 204H151.996C148.684 204 146 198.372 146 191.429V40.5714C146 33.6284 148.684 28 151.996 28H263.734C267.046 28 269.73 33.6284 269.73 40.5714V191.429C269.73 198.372 267.046 204 263.734 204Z" fill="url(#paint0_linear_682_3266)"/>
</g>
<path fill-rule="evenodd" clip-rule="evenodd" d="M175.832 134.162C184.097 134.162 190.798 127.462 190.798 119.196C190.798 110.93 184.097 104.23 175.832 104.23C167.567 104.23 160.866 110.93 160.866 119.196C160.866 127.462 167.567 134.162 175.832 134.162ZM160.866 189.612L219.621 124.145C222.276 121.187 226.775 120.809 229.886 123.282L254.936 143.192L254.937 185.429C254.937 187.739 253.065 189.612 250.755 189.612H160.866Z" fill="white"/>
<path fill-rule="evenodd" clip-rule="evenodd" d="M175.832 134.162C184.097 134.162 190.798 127.462 190.798 119.196C190.798 110.93 184.097 104.23 175.832 104.23C167.567 104.23 160.866 110.93 160.866 119.196C160.866 127.462 167.567 134.162 175.832 134.162ZM160.866 189.612L219.621 124.145C222.276 121.187 226.775 120.809 229.886 123.282L254.936 143.192L254.937 185.429C254.937 187.739 253.065 189.612 250.755 189.612H160.866Z" fill="#1264FF"/>
<path fill-rule="evenodd" clip-rule="evenodd" d="M175.832 134.162C184.097 134.162 190.798 127.462 190.798 119.196C190.798 110.93 184.097 104.23 175.832 104.23C167.567 104.23 160.866 110.93 160.866 119.196C160.866 127.462 167.567 134.162 175.832 134.162ZM160.866 189.612L219.621 124.145C222.276 121.187 226.775 120.809 229.886 123.282L254.936 143.192L254.937 185.429C254.937 187.739 253.065 189.612 250.755 189.612H160.866Z" fill="url(#paint1_linear_682_3266)" fill-opacity="0.12"/>
<path fill-rule="evenodd" clip-rule="evenodd" d="M164.703 42.387C162.584 42.387 160.866 44.1046 160.866 46.2235C160.866 48.3423 162.584 50.06 164.703 50.06H251.504C253.623 50.06 255.341 48.3423 255.341 46.2235C255.341 44.1046 253.623 42.387 251.504 42.387H164.703ZM164.703 53.8965C162.584 53.8965 160.866 55.6143 160.866 57.733C160.866 59.8517 162.584 61.5695 164.703 61.5695H207.535C209.654 61.5695 211.371 59.8517 211.371 57.733C211.371 55.6143 209.654 53.8965 207.535 53.8965H164.703Z" fill="#DADADA" fill-opacity="0.6"/>
<defs>
<filter id="filter0_d_682_3266" x="139.646" y="24.8229" width="136.438" height="188.708" filterUnits="userSpaceOnUse" color-interpolation-filters="sRGB">
<feFlood flood-opacity="0" result="BackgroundImageFix"/>
<feColorMatrix in="SourceAlpha" type="matrix" values="0 0 0 0 0 0 0 0 0 0 0 0 0 0 0 0 0 0 127 0" result="hardAlpha"/>
<feOffset dy="3.17705"/>
<feGaussianBlur stdDeviation="3.17705"/>
<feColorMatrix type="matrix" values="0 0 0 0 0.25098 0 0 0 0 0.341176 0 0 0 0 0.427451 0 0 0 0.15 0"/>
<feBlend mode="normal" in2="BackgroundImageFix" result="effect1_dropShadow_682_3266"/>
<feBlend mode="normal" in="SourceGraphic" in2="effect1_dropShadow_682_3266" result="shape"/>
</filter>
<linearGradient id="paint0_linear_682_3266" x1="115.977" y1="127.394" x2="273.595" y2="231.321" gradientUnits="userSpaceOnUse">
<stop offset="0.281427" stop-color="white"/>
<stop offset="0.606099" stop-color="white" stop-opacity="0"/>
</linearGradient>
<linearGradient id="paint1_linear_682_3266" x1="207.902" y1="104.23" x2="207.902" y2="189.612" gradientUnits="userSpaceOnUse">
<stop stop-color="white"/>
<stop offset="1" stop-color="white" stop-opacity="0"/>
</linearGradient>
</defs>
</svg>
